# xmcd
#
# Track frame offsets:
#	150
#	15041
#	30469
#	45409
#	68455
#	83773
#	97186
#	110195
#	125633
#	139474
#	155102
#	169664
#	183097
#
# Disc length: 2658 seconds
#
# Revision: 1
# Processed by: cddbd v1.5.2PL0 Copyright (c) Steve Scherf et al.
# Submitted via: audiograbber 1.83.01
#
DISCID=a40a600d
DTITLE=Papouskovo sirotci - Sbirka malenosti
DYEAR=2004
DGENRE=Country
TTITLE0=Pstros
TTITLE1=WC blues
TTITLE2=Divadlo svet
TTITLE3=Kolem paty
TTITLE4=Masopust
TTITLE5=Mery
TTITLE6=krajina
TTITLE7=Mistr Bak
TTITLE8=Pardie kopito
TTITLE9=Sanson z podkrovi
TTITLE10=snar je lhar
TTITLE11=Starej bigbeat
TTITLE12=Sbirka malebnosti
EXTD=
EXTT0=
EXTT1=
EXTT2=
EXTT3=
EXTT4=
EXTT5=
EXTT6=
EXTT7=
EXTT8=
EXTT9=
EXTT10=
EXTT11=
EXTT12=
PLAYORDER=
